<svg width="495" height="158" viewBox="0 0 495 158" fill="none" xmlns="http://www.w3.org/2000/svg">
<path d="M2 143.6V47.2H34V143.6H2ZM18 34.8C12.6667 34.8 8.33333 33.1333 5 29.8C1.66667 26.4667 5.66244e-07 22.3333 5.66244e-07 17.4C5.66244e-07 12.4667 1.66667 8.33333 5 5C8.33333 1.66666 12.6667 -4.76837e-06 18 -4.76837e-06C23.4667 -4.76837e-06 27.8 1.66666 31 5C34.3333 8.33333 36 12.4667 36 17.4C36 22.3333 34.3333 26.4667 31 29.8C27.8 33.1333 23.4667 34.8 18 34.8ZM131.753 157.4L115.553 141.2V86.8C115.553 81.3333 114.086 77.1333 111.153 74.2C108.22 71.2667 103.953 69.8 98.3531 69.8C95.9531 69.8 93.6865 70.0667 91.5531 70.6C89.4198 71.1333 87.5531 71.8667 85.9531 72.8V143.6H53.9531V57.4C59.0198 52.3333 65.8865 48.2667 74.5531 45.2C83.3531 42 92.8865 40.4 103.153 40.4C117.953 40.4 129.02 43.8 136.353 50.6C143.82 57.2667 147.553 66.3333 147.553 77.8V126.2L156.553 136.4L131.753 157.4ZM243.955 154L231.355 138.8C225.088 142.667 217.288 144.6 207.955 144.6C195.555 144.6 185.888 141.4 178.955 135C172.021 128.467 168.555 119.933 168.555 109.4C168.555 99.8 171.488 92.4 177.355 87.2C183.221 81.8667 191.755 79.2 202.955 79.2H227.555V76C227.555 72.1333 225.821 69.2667 222.355 67.4C218.888 65.4 213.955 64.4 207.555 64.4C202.621 64.4 198.021 65 193.755 66.2C189.621 67.2667 185.621 68.9333 181.755 71.2L173.955 48C179.021 45.2 184.688 43.2 190.955 42C197.221 40.6667 203.488 40 209.755 40C225.221 40 237.355 43.3333 246.155 50C254.955 56.5333 259.355 65.3333 259.355 76.4V122L268.755 133.4L243.955 154ZM212.955 119.8C218.021 119.8 221.755 118.2 224.155 115C226.555 111.667 227.755 108.333 227.755 105V99.4H212.955C208.821 99.4 205.688 100.267 203.555 102C201.555 103.733 200.555 106.133 200.555 109.2C200.555 112.533 201.688 115.133 203.955 117C206.355 118.867 209.355 119.8 212.955 119.8ZM422.064 157.4L405.864 141.2V87.6C405.864 82.4 404.397 78.2667 401.464 75.2C398.531 72.1333 394.264 70.6 388.664 70.6C386.264 70.6 383.997 70.8667 381.864 71.4C379.731 71.9333 377.864 72.6667 376.264 73.6V143.6H344.264V86.8C344.264 81.3333 342.797 77.1333 339.864 74.2C336.931 71.2667 332.664 69.8 327.064 69.8C324.664 69.8 322.397 70.0667 320.264 70.6C318.131 71.1333 316.264 71.8667 314.664 72.8V143.6H282.664V57.4C287.731 52.3333 294.464 48.2667 302.864 45.2C311.264 42 319.597 40.4 327.864 40.4C335.331 40.4 341.931 41.6667 347.664 44.2C353.397 46.6 357.931 49.7333 361.264 53.6C364.731 50 369.397 46.9333 375.264 44.4C381.131 41.7333 387.931 40.4 395.664 40.4C403.931 40.4 411.197 42.0667 417.464 45.4C423.864 48.7333 428.864 53.6667 432.464 60.2C436.064 66.6 437.864 74.4667 437.864 83.8V126.2L446.864 136.4L422.064 157.4ZM475.789 145.8C470.056 145.8 465.456 144.067 461.989 140.6C458.522 137 456.789 132.6 456.789 127.4C456.789 122.067 458.522 117.6 461.989 114C465.456 110.4 470.056 108.6 475.789 108.6C481.522 108.6 486.122 110.4 489.589 114C493.189 117.6 494.989 122.067 494.989 127.4C494.989 132.6 493.189 137 489.589 140.6C486.122 144.067 481.522 145.8 475.789 145.8Z" fill="white"/>
</svg>
