<svg xmlns="http://www.w3.org/2000/svg" width="289" height="296" viewBox="0 0 289 296" fill="none"><rect width="289" height="296" rx="69" fill="black"></rect><path d="M45 212V115.6H77V212H45ZM61 103.2C55.6667 103.2 51.3333 101.533 48 98.2C44.6667 94.8667 43 90.7333 43 85.8C43 80.8667 44.6667 76.7333 48 73.4C51.3333 70.0667 55.6667 68.4 61 68.4C66.4667 68.4 70.8 70.0667 74 73.4C77.3333 76.7333 79 80.8667 79 85.8C79 90.7333 77.3333 94.8667 74 98.2C70.8 101.533 66.4667 103.2 61 103.2ZM174.753 225.8L158.553 209.6V155.2C158.553 149.733 157.086 145.533 154.153 142.6C151.22 139.667 146.953 138.2 141.353 138.2C138.953 138.2 136.686 138.467 134.553 139C132.42 139.533 130.553 140.267 128.953 141.2V212H96.9531V125.8C102.02 120.733 108.886 116.667 117.553 113.6C126.353 110.4 135.886 108.8 146.153 108.8C160.953 108.8 172.02 112.2 179.353 119C186.82 125.667 190.553 134.733 190.553 146.2V194.6L199.553 204.8L174.753 225.8ZM228.555 214.2C222.821 214.2 218.221 212.467 214.755 209C211.288 205.4 209.555 201 209.555 195.8C209.555 190.467 211.288 186 214.755 182.4C218.221 178.8 222.821 177 228.555 177C234.288 177 238.888 178.8 242.355 182.4C245.955 186 247.755 190.467 247.755 195.8C247.755 201 245.955 205.4 242.355 209C238.888 212.467 234.288 214.2 228.555 214.2Z" fill="#10C2EA"></path></svg>